<svg width="250" height="114" viewBox="0 0 250 114" fill="none" xmlns="http://www.w3.org/2000/svg">
<path d="M44.5891 58.8792C44.5891 59.0554 44.5891 59.3196 44.5891 59.6719C44.5891 60.0241 44.5891 60.6844 44.5891 61.6532C44.5891 62.6219 44.5433 63.5244 44.4517 64.3611C44.3605 65.1976 44.1546 66.1661 43.8344 67.267C43.5142 68.3677 43.1484 69.3143 42.7367 70.107C42.3253 70.8994 41.7078 71.5819 40.8848 72.1542C40.0615 72.7266 39.1012 73.0569 38.0035 73.1451H26.3419C21.4943 73.2329 19.3449 74.1135 19.8936 75.7869C20.2595 76.4911 20.4423 76.8435 20.4423 76.8435C18.979 75.8748 18.0185 74.51 17.561 72.7487C17.0124 70.5471 17.3552 68.544 18.5899 66.7387C19.8247 64.9335 22.3173 64.0308 26.0674 64.0308H38.0034C39.284 64.0308 40.4045 63.8548 41.3649 63.5025C42.3253 63.1503 42.9884 62.7101 43.3543 62.1815C43.7201 61.6532 44.0173 61.1469 44.2459 60.6626C44.4748 60.1783 44.5891 59.76 44.5891 59.4078V58.8792ZM15.5033 60.8608C14.2227 63.5024 13.3767 65.8582 12.9652 67.9276C12.5535 69.997 12.485 71.56 12.7594 72.6166C13.0338 73.6734 13.5367 74.5541 14.2685 75.2585C15.0003 75.963 15.526 76.3812 15.8462 76.5134C16.1662 76.6453 16.4637 76.7554 16.7381 76.8435C13.2624 76.2271 10.9758 75.6548 9.8781 75.1264C5.57936 73.0129 2.81263 69.8648 1.57789 65.6819C0.343146 61.4991 0.960424 57.0743 3.42999 52.4068L21.9515 19.3844H0V11.5911H43.6287C43.6287 11.6793 43.2401 12.3616 42.4625 13.6385C41.6852 14.9155 40.7017 16.5665 39.5127 18.592C38.3236 20.6172 36.9519 22.9289 35.3969 25.5266C33.842 28.1243 32.1729 30.9423 30.3892 33.9803C28.6056 37.0183 26.8449 40.0564 25.1071 43.0945C23.3692 46.1326 21.6544 49.2145 19.9621 52.3408C18.27 55.4668 16.7838 58.3069 15.5033 60.8608Z" fill="#F5790C"/>
<path d="M64.7224 53.5572C64.7224 54.8505 64.8568 55.9498 65.1254 56.8551C65.3943 57.7604 65.6627 58.3682 65.9316 58.6785L66.3346 59.0665H57.3882L56.6627 55.5746C55.9643 56.868 54.9702 57.9026 53.6807 58.6785C52.3912 59.4547 50.3493 59.8425 47.5553 59.8425C44.0088 59.8425 40.9462 58.7302 38.367 56.5057C35.7879 54.2813 34.4984 51.3843 34.4984 47.8149C34.4984 45.2283 35.385 43.0298 37.1581 41.2192C38.9313 39.4086 41.618 37.7015 45.218 36.0976C46.6686 35.4253 47.8105 34.7139 48.6432 33.9639C49.476 33.2137 49.9463 32.5541 50.0538 31.985C50.1611 31.4161 50.1611 30.8857 50.0538 30.3942C49.9463 29.903 49.785 29.5279 49.5702 29.2691L49.167 28.8811C49.3283 28.9846 49.5165 29.1268 49.7312 29.308C49.9462 29.489 50.2685 29.8772 50.6984 30.4719C51.1282 31.0669 51.4507 31.6619 51.6655 32.2566C51.8806 32.8516 51.9075 33.5499 51.7462 34.3519C51.5849 35.1537 51.1282 35.9168 50.376 36.641C50.161 36.8998 49.6641 37.4041 48.8848 38.154C48.1058 38.9043 47.6357 39.3699 47.4745 39.5509C47.3131 39.7321 46.9775 40.12 46.4671 40.7149C45.9565 41.3097 45.6476 41.7753 45.5401 42.1115C45.4325 42.4478 45.2715 42.9134 45.0564 43.5081C44.8416 44.1031 44.7073 44.724 44.6534 45.3704C44.5998 46.0172 44.5728 46.7544 44.5728 47.5821C44.5728 50.9963 46.0236 53.0916 48.9251 53.8674C51.1281 54.4366 53.0625 54.1001 54.7282 52.8586C55.6416 52.1863 56.0984 51.3843 56.0984 50.4531V33.2267C56.0984 31.0538 55.3058 29.2045 53.7206 27.6783C52.1356 26.1523 50.2147 25.3893 47.958 25.3893C44.358 25.3893 41.9401 26.0875 40.704 27.4842L39.0115 24.2254C41.1072 21.4836 45.0833 20.1127 50.9402 20.1127C54.5939 20.1127 57.7371 21.2765 60.3699 23.6045C63.0029 25.9325 64.4537 28.8034 64.7222 32.2178C64.7222 32.5799 64.7222 32.9162 64.7222 33.2267L64.7224 53.5572Z" fill="#1FBFC2"/>
<path d="M100.365 60.7821C100.365 62.0755 100.5 63.1747 100.768 64.08C101.037 64.9853 101.306 65.5931 101.574 65.9034L101.977 66.2914H93.0309L92.3054 62.7996C91.607 64.0929 90.6129 65.1276 89.3234 65.9034C88.0339 66.6796 85.992 67.0676 83.198 67.0676C79.6516 67.0676 76.589 65.9553 74.0097 63.7307C71.4307 61.5063 70.1412 58.6093 70.1412 55.0399C70.1412 52.4534 71.0277 50.2549 72.8008 48.4442C74.574 46.6336 77.2607 44.9265 80.8606 43.3227C82.3115 42.6504 83.4533 41.939 84.2861 41.189C85.1189 40.4387 85.5891 39.7791 85.6967 39.21C85.8039 38.6411 85.8039 38.1107 85.6967 37.6193C85.5891 37.128 85.4278 36.7529 85.213 36.4942L84.8098 36.1062C84.9711 36.2097 85.1592 36.352 85.374 36.5331C85.589 36.714 85.9114 37.1022 86.3412 37.6969C86.771 38.2919 87.0936 38.8869 87.3084 39.4816C87.5234 40.0766 87.5502 40.7749 87.389 41.5769C87.2277 42.3787 86.771 43.1418 86.0189 43.866C85.8038 44.1248 85.3069 44.6291 84.5276 45.3791C83.7486 46.1293 83.2786 46.5949 83.1172 46.7759C82.9559 46.9571 82.6203 47.345 82.1098 47.9399C81.5993 48.5348 81.2904 49.0003 81.1829 49.3365C81.0754 49.6728 80.9143 50.1385 80.6992 50.7333C80.4844 51.3283 80.35 51.9491 80.2963 52.5957C80.2425 53.2423 80.2156 53.9795 80.2156 54.8072C80.2156 58.2214 81.6664 60.3167 84.568 61.0925C86.7708 61.6618 88.7053 61.3252 90.371 60.0837C91.2845 59.4114 91.7412 58.6094 91.7412 57.6782V40.4518C91.7412 38.2789 90.9486 36.4296 89.3634 34.9034C87.7785 33.3775 85.8575 32.6144 83.6008 32.6144C80.0008 32.6144 77.5828 33.3126 76.3468 34.7093L74.6544 31.4505C76.75 28.7087 80.7261 27.3379 86.583 27.3379C90.2366 27.3379 93.3799 28.5016 96.0127 30.8296C98.6457 33.1576 100.096 36.0285 100.365 39.443C100.365 39.805 100.365 40.1413 100.365 40.4518L100.365 60.7821Z" fill="#1FBFC2"/>
<path d="M131.994 64.4678V40.6456C131.994 40.542 131.994 40.387 131.994 40.1799C131.994 39.5076 131.981 38.9512 131.954 38.5115C131.927 38.0718 131.873 37.4123 131.792 36.5327C131.712 35.6534 131.551 34.9162 131.309 34.3213C131.067 33.7263 130.744 33.1055 130.342 32.459C129.939 31.8123 129.388 31.3339 128.689 31.0233C127.991 30.713 127.185 30.5576 126.271 30.5576C125.036 30.5576 123.961 30.7516 123.047 31.1398C122.134 31.5277 121.489 32.0191 121.113 32.614C120.737 33.209 120.442 33.7909 120.227 34.36C120.012 34.9291 119.904 35.4205 119.904 35.8343V36.455C119.851 36.3 119.824 36.093 119.824 35.8343C119.824 35.5756 119.864 35.0582 119.944 34.2824C120.025 33.5065 120.146 32.7692 120.307 32.071C120.469 31.3725 120.777 30.5835 121.234 29.7041C121.691 28.8246 122.242 28.0874 122.886 27.4926C123.531 26.8976 124.391 26.3803 125.465 25.9406C126.54 25.501 127.776 25.281 129.173 25.281C130.409 25.281 131.551 25.4104 132.598 25.669C133.646 25.9279 134.533 26.2251 135.258 26.5615C135.983 26.8976 136.642 27.3891 137.233 28.0356C137.824 28.6823 138.294 29.2643 138.643 29.7817C138.993 30.299 139.301 31.0104 139.57 31.9156C139.839 32.8209 140.04 33.5581 140.175 34.127C140.309 34.6962 140.403 35.4851 140.457 36.4939C140.51 37.5025 140.537 38.2269 140.537 38.6666C140.537 39.1063 140.537 39.8177 140.537 40.8005V64.4676L131.994 64.4678ZM114.988 26.678C115.471 28.5404 115.74 30.4545 115.794 32.4202L116.035 64.4678H107.573V31.7219C107.573 30.4285 107.438 29.3163 107.17 28.3851C106.901 27.4539 106.632 26.8591 106.364 26.6004L105.961 26.1348H114.907L114.988 26.678Z" fill="#1FBFC2"/>
<path d="M70.1647 73.9545H79.1111C75.2423 90.6637 73.3079 99.0186 73.3079 99.0186C72.0723 104.295 69.8425 107.425 66.6182 108.408C64.3078 109.08 62.3199 108.511 60.6541 106.701C59.5794 105.511 59.0691 104.088 59.1227 102.433C59.1763 102.588 59.3108 102.834 59.5259 103.17C59.7407 103.506 60.0228 103.804 60.372 104.062C60.7213 104.321 61.0975 104.463 61.5005 104.489C61.9034 104.515 62.3199 104.282 62.7498 103.791C63.1796 103.299 63.5287 102.51 63.7974 101.424C63.7974 101.372 65.9198 92.2159 70.1647 73.9545ZM56.1407 106.08C56.5705 107.166 57.1212 108.071 57.793 108.796C58.4645 109.52 59.1361 110.05 59.8078 110.386C60.4795 110.723 61.1513 110.955 61.8228 111.085C62.4945 111.214 63.0452 111.266 63.4751 111.24C63.9049 111.214 64.1468 111.175 64.2006 111.124C63.6095 111.693 62.696 112.145 61.46 112.481C60.2243 112.818 59.0692 112.986 57.9945 112.986C55.7915 112.986 53.5614 112.288 51.3047 110.891C49.0481 109.494 47.5167 107.451 46.7108 104.761L39.1345 73.9546H48.1616L56.1407 106.08Z" fill="#1FBFC2"/>
<path d="M107.982 102.469C107.982 103.762 108.116 104.861 108.385 105.766C108.654 106.672 108.922 107.28 109.191 107.59L109.594 107.978H100.648L99.9222 104.486C99.2239 105.779 98.2297 106.814 96.9402 107.59C95.6508 108.366 93.6089 108.754 90.8148 108.754C87.2685 108.754 84.2057 107.642 81.6266 105.417C79.0476 103.193 77.758 100.296 77.758 96.7262C77.758 94.1397 78.6446 91.9412 80.4177 90.1305C82.1908 88.3199 84.8776 86.6129 88.4775 85.0091C89.9283 84.3367 91.0701 83.6253 91.9029 82.8753C92.7357 82.1251 93.2059 81.4655 93.3134 80.8964C93.4208 80.3275 93.4208 79.7971 93.3134 79.3056C93.2059 78.8144 93.0446 78.4393 92.8298 78.1805L92.4266 77.7925C92.588 77.896 92.7761 78.0383 92.9909 78.2194C93.2059 78.4004 93.5282 78.7886 93.9581 79.3833C94.3879 79.9783 94.7104 80.5733 94.9252 81.1679C95.1402 81.7629 95.1671 82.4613 95.0059 83.2632C94.8445 84.0651 94.3879 84.8281 93.6358 85.5523C93.4207 85.8112 92.9238 86.3154 92.1444 87.0654C91.3654 87.8157 90.8954 88.2813 90.7341 88.4622C90.5728 88.6434 90.2372 89.0314 89.7267 89.6263C89.2162 90.2211 88.9072 90.6866 88.7997 91.0228C88.6922 91.3592 88.5312 91.8248 88.3161 92.4196C88.1013 93.0146 87.9669 93.6354 87.9131 94.2819C87.8594 94.9287 87.8324 95.6659 87.8324 96.4936C87.8324 99.9077 89.2833 102.003 92.1848 102.779C94.3877 103.348 96.3221 103.012 97.9879 101.77C98.9014 101.098 99.3581 100.296 99.3581 99.3646V82.1382C99.3581 79.9653 98.5655 78.1159 96.9803 76.5897C95.3953 75.0638 93.4743 74.3007 91.2177 74.3007C87.6176 74.3007 85.1997 74.999 83.9637 76.3957L82.2713 73.1369C84.3669 70.3951 88.343 69.0242 94.1998 69.0242C97.8535 69.0242 100.997 70.188 103.63 72.516C106.263 74.844 107.713 77.7149 107.982 81.1293C107.982 81.4914 107.982 81.8276 107.982 82.1382L107.982 102.469Z" fill="#1FBFC2"/>
<path d="M121.274 74.4978C121.758 76.3601 122.026 78.2743 122.08 80.2399L122.322 112.288H113.859V79.5417C113.859 78.2484 113.725 77.136 113.456 76.2049C113.188 75.2737 112.919 74.6789 112.65 74.4202L112.247 73.9545H121.194L121.274 74.4978ZM139.812 72.4028C139.758 72.6613 139.771 73.0493 139.852 73.5666C139.933 74.084 139.825 74.6659 139.53 75.3127C139.234 75.9592 138.871 76.5801 138.442 77.1751C138.012 77.7698 137.259 78.2743 136.185 78.6881C135.11 79.102 133.848 79.3088 132.397 79.3088C131.054 79.3088 129.885 79.3865 128.891 79.5417C127.897 79.6967 127.171 79.865 126.714 80.046C126.258 80.2271 125.909 80.4469 125.667 80.7055C125.425 80.9643 125.291 81.1583 125.264 81.2874C125.237 81.4168 125.25 81.5332 125.304 81.6367C125.25 81.3782 125.21 81.0548 125.183 80.6668C125.156 80.2788 125.223 79.658 125.385 78.8045C125.546 77.9509 125.841 77.1878 126.271 76.5152C126.701 75.8428 127.453 75.235 128.528 74.6917C129.603 74.1486 130.946 73.877 132.558 73.877C137.286 73.877 139.704 73.3855 139.812 72.4028Z" fill="#1FBFC2"/>
<path d="M146.447 72.7642C175.289 82.021 207.235 60.5582 205.068 33.1106C204.223 23.5119 199.586 11.1382 189.453 10.9774C176.836 10.7756 175.578 27.5096 170.845 23.3453C166.585 12.109 176.514 0.195899 189.056 0C208.562 0.197043 215.822 20.9567 214.618 36.5621C214.284 56.0732 197.722 78.9365 175.919 82.8773C167.805 84.5532 142.594 85.6763 143.909 73.8517L146.447 72.7642Z" fill="#1FBFC2"/>
<path d="M143.14 113.754V112.832C143.427 112.832 143.836 112.801 144.367 112.739C144.899 112.678 145.39 112.545 145.84 112.34V93.3705C145.39 93.2271 144.909 93.1553 144.398 93.1553C143.907 93.1553 143.519 93.1656 143.232 93.1861L143.14 92.2637C144.49 92.0998 145.84 91.9461 147.19 91.8026C148.54 91.6591 149.859 91.5874 151.147 91.5874C151.986 91.5874 152.804 91.6591 153.601 91.8026C154.399 91.9256 155.105 92.1715 155.718 92.5404C156.434 92.9709 156.986 93.5448 157.375 94.2621C157.763 94.9795 157.958 95.7584 157.958 96.5987C157.958 97.644 157.671 98.6278 157.099 99.5502C156.526 100.452 155.82 101.108 154.982 101.518C155.882 101.805 156.71 102.245 157.467 102.84C158.224 103.434 158.837 104.152 159.307 104.992C159.778 105.812 160.013 106.703 160.013 107.667C160.013 108.609 159.747 109.552 159.215 110.495C158.684 111.438 157.876 112.217 156.792 112.832C155.708 113.447 154.327 113.754 152.65 113.754H143.14ZM148.509 101.61C148.693 101.61 149 101.62 149.429 101.641C149.859 101.641 150.339 101.631 150.871 101.61C151.403 101.59 151.924 101.528 152.436 101.426C152.947 101.303 153.387 101.118 153.755 100.872C154.246 100.565 154.634 100.104 154.921 99.4887C155.227 98.8533 155.381 98.1667 155.381 97.4288C155.381 95.6046 154.747 94.3749 153.479 93.7395C152.231 93.1041 150.575 92.9299 148.509 93.2168V101.61ZM157.221 108.374C157.221 107.226 156.894 106.222 156.24 105.361C155.585 104.48 154.716 103.854 153.632 103.485C152.814 103.178 151.945 103.024 151.024 103.024C150.125 103.024 149.286 103.024 148.509 103.024V111.633C148.775 111.858 149.225 112.053 149.859 112.217C150.513 112.36 151.219 112.432 151.975 112.432C153.509 112.432 154.767 112.084 155.749 111.387C156.731 110.69 157.221 109.686 157.221 108.374Z" fill="#1FBFC2"/>
<path d="M173.849 114C173.235 113.795 172.847 113.488 172.683 113.078C172.519 112.668 172.427 112.289 172.407 111.94C171.752 112.412 170.996 112.873 170.137 113.324C169.298 113.775 168.49 114 167.713 114C167.345 114 166.916 113.939 166.425 113.816C165.954 113.693 165.484 113.416 165.014 112.985C164.645 112.637 164.339 112.186 164.093 111.633C163.868 111.059 163.756 110.311 163.756 109.388V101.917C163.49 101.815 163.173 101.764 162.805 101.764C162.457 101.743 162.14 101.754 161.854 101.794L161.578 100.995L165.627 99.3042L166.241 99.7346V108.62C166.241 109.132 166.261 109.573 166.302 109.942C166.343 110.29 166.466 110.639 166.67 110.987C166.895 111.356 167.202 111.633 167.59 111.817C167.979 112.002 168.398 112.094 168.848 112.094C169.564 112.094 170.219 111.94 170.812 111.633C171.425 111.305 171.957 110.977 172.407 110.649V101.917C172.141 101.815 171.824 101.764 171.456 101.764C171.108 101.743 170.791 101.754 170.505 101.794L170.229 100.995L174.278 99.3042L174.892 99.7346V111.725C175.321 111.766 175.741 111.735 176.15 111.633C176.579 111.53 176.947 111.428 177.254 111.325L177.622 112.155L173.849 114Z" fill="#1FBFC2"/>
<path d="M183.591 114C182.896 114 182.159 113.918 181.382 113.754C180.605 113.611 180.022 113.426 179.634 113.201L178.989 109.204L180.002 109.019C180.186 110.024 180.554 110.885 181.106 111.602C181.679 112.299 182.436 112.647 183.376 112.647C184.092 112.647 184.696 112.473 185.186 112.125C185.677 111.776 185.923 111.264 185.923 110.587C185.923 110.095 185.718 109.655 185.309 109.265C184.9 108.855 184.399 108.466 183.806 108.097C183.213 107.708 182.609 107.298 181.996 106.867C181.403 106.437 180.902 105.955 180.493 105.422C180.084 104.869 179.879 104.213 179.879 103.455C179.879 102.204 180.329 101.231 181.229 100.534C182.149 99.8371 183.284 99.4887 184.634 99.4887C185.309 99.4887 185.912 99.5501 186.444 99.6731C186.976 99.7756 187.334 99.8474 187.518 99.8883L187.978 103.393L187.058 103.547C186.955 102.707 186.669 102.051 186.199 101.579C185.749 101.108 185.176 100.872 184.481 100.872C183.806 100.872 183.243 101.046 182.794 101.395C182.344 101.723 182.119 102.215 182.119 102.871C182.119 103.465 182.323 103.967 182.732 104.377C183.162 104.787 183.683 105.166 184.297 105.515C184.91 105.863 185.514 106.232 186.107 106.621C186.72 107.011 187.232 107.492 187.641 108.066C188.07 108.64 188.285 109.358 188.285 110.218C188.285 111.346 187.845 112.258 186.966 112.955C186.107 113.652 184.982 114 183.591 114Z" fill="#1FBFC2"/>
<path d="M190.19 113.754V112.832C190.456 112.832 190.824 112.801 191.294 112.739C191.765 112.678 192.204 112.545 192.613 112.34V101.917C192.347 101.815 192.03 101.764 191.662 101.764C191.315 101.743 190.998 101.754 190.711 101.794L190.435 100.995L194.485 99.3042L195.098 99.7346V112.34C195.507 112.545 195.947 112.678 196.417 112.739C196.888 112.801 197.256 112.832 197.522 112.832V113.754H190.19ZM193.81 96.3835C193.319 96.3835 192.91 96.2298 192.583 95.9223C192.276 95.5944 192.122 95.1845 192.122 94.6926C192.122 94.2416 192.276 93.842 192.583 93.4935C192.91 93.1451 193.319 92.9709 193.81 92.9709C194.301 92.9709 194.71 93.1348 195.037 93.4628C195.364 93.7907 195.528 94.1904 195.528 94.6618C195.528 95.1127 195.364 95.5124 195.037 95.8608C194.71 96.2093 194.301 96.3835 193.81 96.3835Z" fill="#1FBFC2"/>
<path d="M198.697 113.754V112.832C198.962 112.832 199.331 112.801 199.801 112.739C200.271 112.678 200.711 112.545 201.12 112.34V101.917C200.854 101.815 200.537 101.764 200.169 101.764C199.821 101.743 199.504 101.754 199.218 101.794L198.942 100.995L202.992 99.3042L203.605 99.7346V101.794C204.055 101.446 204.556 101.098 205.108 100.749C205.681 100.401 206.264 100.104 206.857 99.8576C207.47 99.6116 208.064 99.4887 208.636 99.4887C209.004 99.4887 209.424 99.5501 209.894 99.6731C210.385 99.7961 210.865 100.073 211.336 100.503C211.704 100.831 212.001 101.282 212.226 101.856C212.471 102.43 212.594 103.178 212.594 104.1V112.34C213.003 112.545 213.442 112.678 213.913 112.739C214.383 112.801 214.751 112.832 215.017 112.832V113.754H207.931V112.832C208.156 112.832 208.483 112.801 208.912 112.739C209.342 112.678 209.741 112.545 210.109 112.34V104.869C210.109 104.357 210.088 103.916 210.047 103.547C210.006 103.178 209.884 102.83 209.679 102.502C209.454 102.133 209.148 101.856 208.759 101.672C208.391 101.487 207.972 101.395 207.501 101.395C206.703 101.395 205.967 101.59 205.292 101.979C204.638 102.368 204.075 102.748 203.605 103.117V112.34C204.014 112.545 204.454 112.678 204.924 112.739C205.395 112.801 205.763 112.832 206.029 112.832V113.754H198.697Z" fill="#1FBFC2"/>
<path d="M216.138 107.144C216.138 105.648 216.435 104.326 217.028 103.178C217.621 102.01 218.409 101.098 219.39 100.442C220.392 99.7859 221.497 99.4682 222.703 99.4887C223.726 99.4887 224.626 99.7449 225.403 100.257C226.18 100.77 226.763 101.467 227.152 102.348C227.561 103.209 227.704 104.162 227.581 105.207L218.378 105.699V105.791C218.378 106.857 218.593 107.851 219.022 108.773C219.452 109.675 220.045 110.403 220.801 110.956C221.558 111.489 222.417 111.756 223.378 111.756C224.074 111.756 224.708 111.622 225.28 111.356C225.853 111.069 226.334 110.751 226.722 110.403L227.366 110.956C227.06 111.407 226.63 111.868 226.078 112.34C225.546 112.811 224.933 113.211 224.237 113.539C223.542 113.846 222.795 114 221.998 114C220.853 114 219.84 113.682 218.961 113.047C218.081 112.412 217.386 111.571 216.875 110.526C216.384 109.481 216.138 108.353 216.138 107.144ZM221.967 101.087C221.088 101.087 220.341 101.415 219.728 102.071C219.135 102.727 218.736 103.526 218.531 104.469L224.851 103.977C224.851 103.198 224.565 102.522 223.992 101.948C223.419 101.374 222.744 101.087 221.967 101.087Z" fill="#1FBFC2"/>
<path d="M233.922 114C233.227 114 232.49 113.918 231.713 113.754C230.936 113.611 230.353 113.426 229.964 113.201L229.32 109.204L230.333 109.019C230.517 110.024 230.885 110.885 231.437 111.602C232.01 112.299 232.766 112.647 233.707 112.647C234.423 112.647 235.026 112.473 235.517 112.125C236.008 111.776 236.253 111.264 236.253 110.587C236.253 110.095 236.049 109.655 235.64 109.265C235.231 108.855 234.73 108.466 234.137 108.097C233.544 107.708 232.94 107.298 232.327 106.867C231.734 106.437 231.233 105.955 230.823 105.422C230.414 104.869 230.21 104.213 230.21 103.455C230.21 102.204 230.66 101.231 231.56 100.534C232.48 99.8371 233.615 99.4887 234.965 99.4887C235.64 99.4887 236.243 99.5501 236.775 99.6731C237.307 99.7756 237.665 99.8474 237.849 99.8883L238.309 103.393L237.389 103.547C237.286 102.707 237 102.051 236.53 101.579C236.08 101.108 235.507 100.872 234.812 100.872C234.137 100.872 233.574 101.046 233.124 101.395C232.674 101.723 232.449 102.215 232.449 102.871C232.449 103.465 232.654 103.967 233.063 104.377C233.492 104.787 234.014 105.166 234.628 105.515C235.241 105.863 235.844 106.232 236.438 106.621C237.051 107.011 237.562 107.492 237.971 108.066C238.401 108.64 238.616 109.358 238.616 110.218C238.616 111.346 238.176 112.258 237.297 112.955C236.438 113.652 235.313 114 233.922 114Z" fill="#1FBFC2"/>
<path d="M245.306 114C244.611 114 243.875 113.918 243.098 113.754C242.32 113.611 241.737 113.426 241.349 113.201L240.705 109.204L241.717 109.019C241.901 110.024 242.269 110.885 242.821 111.602C243.394 112.299 244.151 112.647 245.092 112.647C245.807 112.647 246.411 112.473 246.902 112.125C247.392 111.776 247.638 111.264 247.638 110.587C247.638 110.095 247.433 109.655 247.024 109.265C246.615 108.855 246.114 108.466 245.521 108.097C244.928 107.708 244.325 107.298 243.711 106.867C243.118 106.437 242.617 105.955 242.208 105.422C241.799 104.869 241.594 104.213 241.594 103.455C241.594 102.204 242.044 101.231 242.944 100.534C243.864 99.8371 245 99.4887 246.349 99.4887C247.024 99.4887 247.628 99.5501 248.159 99.6731C248.691 99.7756 249.049 99.8474 249.233 99.8883L249.693 103.393L248.773 103.547C248.671 102.707 248.384 102.051 247.914 101.579C247.464 101.108 246.891 100.872 246.196 100.872C245.521 100.872 244.959 101.046 244.509 101.395C244.059 101.723 243.834 102.215 243.834 102.871C243.834 103.465 244.038 103.967 244.447 104.377C244.877 104.787 245.398 105.166 246.012 105.515C246.625 105.863 247.229 106.232 247.822 106.621C248.435 107.011 248.947 107.492 249.356 108.066C249.785 108.64 250 109.358 250 110.218C250 111.346 249.56 112.258 248.681 112.955C247.822 113.652 246.697 114 245.306 114Z" fill="#1FBFC2"/>
</svg>
